<svg id="logo-mighty-light" xmlns="http://www.w3.org/2000/svg" width="99.904" height="28.761" viewBox="0 0 99.904 28.761">
  <g id="Group_1" data-name="Group 1">
    <path id="Path_1" data-name="Path 1" d="M176.492,21.687h5.159v4.352h-5.159Zm.129,6.256h4.9V45.224l-4.9-14.457Z" transform="translate(-146.384 -21.687)" fill="#fafbfc"/>
    <path id="Path_2" data-name="Path 2" d="M313.477,21.687h4.9v8.705a6.114,6.114,0,0,1,5.063-2.772c3.708,0,5.867,2.451,5.867,6.416V45.223h-4.9V35.584c0-2.321-1.1-3.514-2.967-3.514s-3.064,1.193-3.064,3.514v9.639h-4.9V21.687" transform="translate(-257.959 -21.687)" fill="#fafbfc"/>
    <path id="Path_3" data-name="Path 3" d="M463.472,55.408,459.7,67.177l-3.935-11.769h-5.19l6.771,17.348a2.033,2.033,0,0,1-2.105,1.257,6.806,6.806,0,0,1-.994-.043v3.908a20.514,20.514,0,0,0,2.446,0c2.677-.141,3.908-1.25,5.23-4.765l6.642-17.7h-5.094" transform="translate(-369.626 -49.153)" fill="#fafbfc"/>
    <path id="Path_4" data-name="Path 4" d="M33.318,49.745H28.94L23.946,34.612l-4.63,15.133H14.177l7.629-22.507h4.279L31.129,41.86l5.044-14.623h4.279l7.629,22.507H42.942L38.313,34.612,33.318,49.745" transform="translate(-14.177 -26.208)" fill="#fafbfc"/>
    <path id="Path_5" data-name="Path 5" d="M405.059,48.4V31.6h4.9v4.417h2.482l1.637,4.192H409.96v7.385c0,1.128.483,1.675,1.58,1.675a4.982,4.982,0,0,0,2.417-.612v3.933a7.222,7.222,0,0,1-3.868,1c-3,0-5.03-1.193-5.03-5.191" transform="translate(-332.553 -29.76)" fill="#fafbfc"/>
    <path id="Path_6" data-name="Path 6" d="M222.62,54v2.257a7,7,0,0,0-5.578-2.579c-3.967,0-7.673,2.9-7.673,8.061V61.8c0,5.127,3.642,8.06,7.673,8.06a6.759,6.759,0,0,0,5.642-2.8v.837c0,3.1-1.58,4.708-4.932,4.708-.345,0-.673-.019-.993-.043v3.908c.371.022.745.037,1.122.037,3.353,0,5.836-.71,7.449-2.322,1.451-1.451,2.193-3.707,2.193-6.8V54h-4.9m-4.159,11.8a4.034,4.034,0,1,1,0-8.061,4.035,4.035,0,1,1,0,8.061Z" transform="translate(-173.162 -47.74)" fill="#fafbfc"/>
  </g>
  <g id="Group_2" data-name="Group 2" transform="translate(95.846 21.448)">
    <path id="Path_7" data-name="Path 7" d="M531.621,139.4v-1.834h-.74v-.254h1.763v.254H531.9V139.4h-.284" transform="translate(-530.881 -137.314)" fill="#fafbfc"/>
    <path id="Path_8" data-name="Path 8" d="M543.16,137.314h-.32l-.552,1.043-.551-1.043h-.319l-.2,2.088h.286l.154-1.632.564,1.068h.133l.564-1.068.154,1.632h.286l-.2-2.088" transform="translate(-539.301 -137.314)" fill="#fafbfc"/>
  </g>
</svg>
