<?xml version="1.0" encoding="utf-8"?>
<!-- Generator: Adobe Illustrator 24.2.3, SVG Export Plug-In . SVG Version: 6.00 Build 0)  -->
<svg version="1.1" id="export_for_SVG" xmlns="http://www.w3.org/2000/svg" xmlns:xlink="http://www.w3.org/1999/xlink" x="0px"
	 y="0px" viewBox="0 0 158.1 83.5" style="enable-background:new 0 0 158.1 83.5;" xml:space="preserve">
<style type="text/css">
	.st0{fill:#242A36;}
</style>
<g>
	<defs>
		<path id="SVGID_4_" d="M144.3,53.4c0.6,0.7,0.6,1.7,0,2.4c-0.7,0.6-1.8,0.6-2.5,0c-0.6-0.7-0.6-1.7,0-2.4
			C142.5,52.8,143.6,52.8,144.3,53.4z M143.8,58.8c0.3,0,0.5,0.1,0.6,0.4c0,0,0,0.1,0,0.1l0,12.9c0,0.3-0.1,0.5-0.4,0.6
			c0,0-0.1,0-0.1,0h-1.6c-0.3,0-0.5-0.2-0.6-0.4c0,0,0-0.1,0-0.1l0-12.9c0-0.3,0.1-0.5,0.4-0.6c0,0,0.1,0,0.1,0L143.8,58.8z
			 M151.2,61.9c-0.7,0.8-1,2-1,3.8V66c0,1.7,0.4,2.9,1,3.7c0.9,0.9,2.1,1.3,3.3,1.2c0.8,0,1.7-0.1,2.5-0.4c0.1,0,0.3-0.1,0.4-0.1
			c0.2,0,0.4,0.2,0.4,0.6v0.7c0,0.2,0,0.4-0.1,0.5c-0.1,0.1-0.3,0.2-0.4,0.3c-1,0.4-2.1,0.6-3.2,0.6c-2.2,0-3.9-0.6-5-1.9
			c-1.2-1.2-1.7-3.1-1.7-5.4c0-2.4,0.6-4.2,1.8-5.5c1.3-1.3,3.2-2,5.1-1.9c1,0,2,0.2,2.9,0.5c0.2,0,0.3,0.1,0.4,0.3
			c0.1,0.2,0.1,0.4,0.1,0.6v0.7c0,0.4-0.1,0.6-0.4,0.6c-0.2,0-0.3,0-0.4-0.1c-0.7-0.2-1.5-0.3-2.3-0.3
			C153,60.7,151.9,61.1,151.2,61.9L151.2,61.9z M108.7,72.8c-0.3,0-0.5-0.1-0.6-0.4c0,0,0-0.1,0-0.1l0-9c0.1-0.7-0.1-1.4-0.5-2.1
			c-0.4-0.5-1-0.7-1.7-0.7c-1.5,0-2.9,0.5-4.1,1.2c0,0.1,0,0.3,0,0.4l0,10c0,0.3-0.1,0.5-0.4,0.6c0,0-0.1,0-0.1,0h-1.6
			c-0.3,0-0.5-0.1-0.6-0.4c0,0,0-0.1,0-0.1l0-9c0.1-0.7-0.1-1.4-0.5-2.1c-0.4-0.5-1-0.7-1.7-0.7c-1.4,0-2.9,0.4-4.1,1.2l0,10.5
			c0,0.3-0.1,0.5-0.4,0.6c0,0-0.1,0-0.1,0h-1.6c-0.3,0-0.5-0.2-0.6-0.4c0,0,0-0.1,0-0.1l0-12.9c0-0.3,0.1-0.5,0.4-0.6
			c0,0,0.1,0,0.1,0h1.2c0.1,0,0.3,0,0.4,0.1c0.1,0.1,0.2,0.3,0.2,0.4l0.2,0.9c1.5-1.1,3.3-1.8,5.2-1.8c1.7,0,2.9,0.7,3.5,2
			c1.6-1.2,3.5-1.9,5.5-2c1.1-0.1,2.2,0.3,2.9,1.1c0.7,0.9,1.1,2,1,3.1l0,9.8c0,0.3-0.1,0.5-0.4,0.6c0,0-0.1,0-0.1,0H108.7z
			 M123.6,59.3c0-0.3,0.2-0.5,0.4-0.6c0,0,0.1,0,0.1,0h1.6c0.3,0,0.5,0.1,0.6,0.4c0,0,0,0.1,0,0.1l0,12.9c0,0.3-0.1,0.5-0.4,0.6
			c0,0-0.1,0-0.1,0h-1.2c-0.1,0-0.3,0-0.4-0.1c-0.1-0.1-0.2-0.3-0.2-0.4l-0.2-1c-1.5,1.2-3.4,1.9-5.3,1.9c-1.1,0.1-2.2-0.3-3.1-1.1
			c-0.7-0.9-1.1-2-1.1-3.1l0-9.7c0-0.3,0.2-0.5,0.4-0.6c0,0,0.1,0,0.1,0h1.6c0.3,0,0.5,0.1,0.6,0.4c0,0,0,0.1,0,0.1l0,8.8
			c-0.1,0.8,0.1,1.6,0.6,2.2c0.5,0.5,1.2,0.8,1.9,0.7c1.4,0,2.8-0.5,4-1.3L123.6,59.3z M135.9,70.6c0.5-0.4,0.8-0.9,0.7-1.5
			c0-0.4-0.1-0.8-0.4-1.1c-0.5-0.4-1-0.7-1.6-0.8l-2.4-0.9c-2.1-0.7-3.1-2.1-3.1-3.9c0-1.1,0.5-2.2,1.4-2.9c1.1-0.8,2.4-1.2,3.7-1.1
			c1.2,0,2.4,0.2,3.5,0.6c0.2,0,0.3,0.1,0.5,0.3c0.1,0.2,0.1,0.4,0.1,0.5v0.7c0,0.3-0.1,0.5-0.4,0.5c-0.2,0-0.4-0.1-0.6-0.1
			c-1-0.3-2-0.4-3-0.4c-1.8,0-2.7,0.6-2.7,1.8c0,0.4,0.1,0.8,0.4,1.1c0.5,0.4,1.1,0.7,1.7,0.9l2.2,0.8c0.9,0.3,1.7,0.8,2.3,1.5
			c0.5,0.6,0.8,1.4,0.7,2.3c0,1.2-0.5,2.4-1.5,3.1c-1.1,0.8-2.5,1.2-3.9,1.2c-1.4,0-2.9-0.2-4.2-0.8c-0.2-0.1-0.3-0.2-0.5-0.3
			c-0.1-0.2-0.1-0.3-0.1-0.5v-0.8c0-0.3,0.1-0.5,0.3-0.5c0.2,0,0.5,0.1,0.7,0.2c1.2,0.4,2.5,0.6,3.8,0.6
			C134.6,71.2,135.3,71,135.9,70.6L135.9,70.6z M53.9,75.6c-0.6-0.8-4.1-0.4-5.6-0.2c-0.5,0.1-0.6-0.4-0.1-0.7
			c2.8-1.9,7.3-1.4,7.8-0.7c0.5,0.6-0.1,5.2-2.7,7.3c-0.4,0.3-0.8,0.2-0.6-0.3C53.3,79.7,54.6,76.4,53.9,75.6z M51.9,77.9
			c-4.8,3.6-11.8,5.5-17.9,5.5c-8.1,0-15.8-2.9-21.8-8.3c-0.5-0.4-0.1-1,0.5-0.6c6.7,3.8,14.2,5.8,21.9,5.8c5.7,0,11.4-1.2,16.7-3.4
			C52,76.4,52.7,77.3,51.9,77.9z M7.9,66.5l0-0.6c-1.9,0-3.8,0.4-3.8,2.6c0,1.1,0.6,1.9,1.6,1.9c0.8,0,1.4-0.5,1.8-1.2
			C7.9,68.4,8,67.5,7.9,66.5z M10.5,72.8c-0.2,0.1-0.4,0.2-0.6,0.1c-0.6-0.5-1.1-1.1-1.5-1.7c-1,1.3-2.6,2-4.2,1.9
			c-2.2,0-3.9-1.3-3.9-4c-0.1-1.8,1-3.5,2.7-4.2c1.4-0.6,3.3-0.7,4.8-0.9l0-0.3c0.1-0.6,0-1.3-0.3-1.9c-0.4-0.5-0.9-0.7-1.5-0.7
			c-1-0.1-1.9,0.6-2.1,1.5c0,0.2-0.2,0.4-0.4,0.5l-2.5-0.3c-0.2-0.1-0.4-0.3-0.3-0.5c0.6-3,3.3-3.9,5.8-3.9c1.4,0,2.8,0.4,3.9,1.3
			c1.3,1.2,1.1,2.7,1.1,4.4l0,4c0,0.9,0.4,1.7,1,2.4c0.2,0.2,0.2,0.5,0,0.7c0,0,0,0,0,0C12,71.5,11.1,72.3,10.5,72.8L10.5,72.8z
			 M41.7,66.5V66c-1.9,0-3.8,0.4-3.8,2.6c0,1.1,0.6,1.9,1.6,1.9c0.8,0,1.5-0.5,1.8-1.2C41.6,68.4,41.8,67.5,41.7,66.5z M44.3,72.8
			c-0.2,0.1-0.4,0.2-0.6,0.1c-0.6-0.5-1.1-1.1-1.5-1.7c-1,1.3-2.6,2-4.2,1.9c-2.2,0-3.9-1.3-3.9-4c0-1.8,1-3.5,2.7-4.2
			c1.4-0.6,3.4-0.7,4.8-0.9v-0.3c0.1-0.6,0-1.3-0.3-1.9c-0.3-0.5-0.9-0.7-1.5-0.7c-1-0.1-1.9,0.6-2.1,1.5c0,0.2-0.2,0.4-0.4,0.5
			l-2.5-0.3c-0.2-0.1-0.4-0.3-0.4-0.5c0.6-3,3.3-3.9,5.8-3.9c1.4,0,2.8,0.4,3.9,1.3c1.2,1.2,1.1,2.7,1.1,4.4l0,4
			c0,0.9,0.4,1.7,1,2.4c0.2,0.2,0.2,0.5,0,0.7C45.7,71.5,44.8,72.3,44.3,72.8L44.3,72.8z M76,72.8h-2.6c-0.3,0-0.5-0.2-0.5-0.5
			l0-13.2c0-0.3,0.2-0.4,0.5-0.4h2.4c0.2,0,0.4,0.2,0.5,0.4l0,2h0c0.7-1.8,1.7-2.7,3.5-2.7c1.2-0.1,2.4,0.5,3,1.6
			c0.7,1.1,0.7,2.8,0.7,4.1l0,8.4c0,0.2-0.2,0.4-0.5,0.4h-2.6c-0.2,0-0.4-0.2-0.5-0.4l0-7.2c0-1.5,0.2-3.6-1.6-3.6
			c-0.7,0-1.2,0.4-1.5,1.1c-0.3,0.8-0.5,1.6-0.4,2.5l0,7.1C76.5,72.6,76.3,72.8,76,72.8C76,72.8,76,72.8,76,72.8L76,72.8z
			 M65.2,61.2c-1.9,0-2,2.6-2,4.2c0,1.6,0,5,2,5c2,0,2.1-2.8,2.1-4.5c0-1.2-0.1-2.4-0.4-3.5C66.7,61.6,66,61.1,65.2,61.2z
			 M65.2,58.5c3.8,0,5.9,3.3,5.9,7.4c0,4-2.3,7.2-5.9,7.2c-3.7,0-5.8-3.3-5.8-7.3C59.4,61.7,61.4,58.5,65.2,58.5L65.2,58.5z
			 M17.6,72.8H15c-0.2,0-0.4-0.2-0.5-0.4l0-13.2c0-0.3,0.2-0.5,0.5-0.5c0,0,0,0,0,0h2.4c0.2,0,0.4,0.2,0.5,0.4l0,1.7h0
			c0.4-1.5,1.8-2.5,3.4-2.4c1.6,0,2.6,0.8,3.3,2.4c0.8-2,3-2.9,4.9-2.2c0.6,0.2,1.2,0.7,1.6,1.2c0.8,1.1,0.6,2.7,0.6,4.1l0,8.3
			c0,0.3-0.2,0.5-0.5,0.5c0,0,0,0,0,0h-2.6c-0.3,0-0.5-0.2-0.5-0.5l0-7c0-0.8,0-1.6-0.1-2.5c-0.1-0.7-0.8-1.2-1.5-1.1c0,0,0,0,0,0
			c-0.7,0-1.3,0.4-1.5,1.1c-0.2,0.8-0.3,1.7-0.2,2.5l0,7c0,0.3-0.2,0.5-0.5,0.5c0,0,0,0,0,0h-2.6c-0.3,0-0.5-0.2-0.5-0.5l0-7
			c0-1.5,0.2-3.6-1.6-3.6s-1.8,2.1-1.8,3.6l0,7C18.1,72.6,17.8,72.8,17.6,72.8C17.6,72.8,17.6,72.8,17.6,72.8z M48.4,61.1v-1.9
			c0-0.3,0.2-0.5,0.5-0.5c0,0,0,0,0,0l8.5,0c0.3,0,0.5,0.2,0.5,0.4c0,0,0,0,0,0l0,1.6c-0.1,0.4-0.3,0.9-0.6,1.2l-4.4,6.2
			c1.7-0.1,3.3,0.3,4.8,1c0.3,0.1,0.4,0.4,0.4,0.7v2c0,0.2-0.2,0.5-0.4,0.5c-0.1,0-0.1,0-0.2,0c-2.8-1.4-6.1-1.4-8.9,0
			c-0.3,0.2-0.6-0.2-0.6-0.4v-1.9c0-0.5,0.1-0.9,0.3-1.3l5.1-7.3h-4.4C48.7,61.5,48.4,61.3,48.4,61.1C48.4,61.1,48.4,61.1,48.4,61.1
			L48.4,61.1z"/>
	</defs>
	<use xlink:href="#SVGID_4_"  style="overflow:visible;fill:#242A36;"/>
	<clipPath id="SVGID_1_">
		<use xlink:href="#SVGID_4_"  style="overflow:visible;"/>
	</clipPath>
</g>
<g>
	<g>
		<path id="path3017_3_" class="st0" d="M45.4,26.2c-0.2-0.2-0.1-0.3,0-0.5l1.8-2.1c0.1-0.2,0.3-0.1,0.4,0c1.6,1.4,3,2.2,5.3,2.2
			c1.4,0,2.9-0.6,2.9-2c0-0.5-0.2-0.9-0.4-1.2C53.5,20.9,46,21.8,46,16c0-2.6,1.9-5.4,6.3-5.4c2.7,0,4.7,0.9,6.3,2.2
			c0.2,0.2,0.2,0.3,0.1,0.5l-1.5,2.2c-0.1,0.2-0.2,0.2-0.5,0c-0.9-0.7-2.5-1.6-4.4-1.6c-1.6,0-2.6,0.7-2.6,1.9
			c0,3.5,9.8,1.3,9.8,7.9c0,3.2-2.5,5.4-6.5,5.4C50,29,47.6,28.1,45.4,26.2z"/>
		<path id="path3019_3_" class="st0" d="M68.1,14.9c-2.2,0-3.3,1-4.2,2v-1.4c0-0.2-0.1-0.3-0.3-0.3h-2.9c-0.3,0-0.3,0.1-0.3,0.3v17
			c0,0.2,0.1,0.3,0.3,0.3h2.9c0.2,0,0.3-0.1,0.3-0.3v-5.3c0.7,1,2.2,1.9,4.2,1.9c3.1,0,6.4-2.3,6.4-7.1C74.5,17,71,14.9,68.1,14.9z
			 M67.4,18c1.8,0,3.5,1.4,3.5,4.1c0,2.4-1.6,4-3.5,4c-2.1,0-3.6-1.9-3.6-4C63.8,19.9,65.2,18,67.4,18z"/>
		<path id="path3032_3_" class="st0" d="M89.9,22L89.9,22c0-1-0.2-2-0.6-2.8c-0.4-0.9-0.9-1.6-1.5-2.2c-0.6-0.6-1.4-1.1-2.3-1.5
			c-0.9-0.4-1.8-0.5-2.9-0.5c-1.1,0-2,0.2-2.9,0.6c-0.9,0.4-1.7,0.9-2.3,1.5c-0.7,0.6-1.2,1.4-1.5,2.3c-0.4,0.9-0.6,1.8-0.6,2.8v0.1
			c0,1,0.2,1.9,0.6,2.8c0.4,0.9,0.9,1.6,1.5,2.2c0.6,0.6,1.4,1.1,2.3,1.5c0.9,0.4,1.8,0.5,2.9,0.5c1.1,0,2-0.2,2.9-0.6
			c0.9-0.4,1.7-0.9,2.3-1.5c0.7-0.6,1.2-1.4,1.5-2.3C89.7,23.9,89.9,23,89.9,22L89.9,22z M82.7,26c-2.5,0-3.8-2.2-3.8-4.1
			c0-2.3,1.6-4,3.8-4c1.9,0,3.8,1.5,3.8,4.1C86.5,24.5,84.6,26,82.7,26L82.7,26z"/>
		<path id="path3034_3_" class="st0" d="M96.7,25.9c0.8,0,1.3-0.3,1.6-0.4c0.3-0.2,0.5-0.1,0.5,0.2v2.4c0,0.1-0.1,0.2-0.2,0.3
			c-0.8,0.4-1.5,0.7-2.8,0.7c-2.7,0-4-1.5-4-4v-6.8h-1.4c-0.2,0-0.2-0.1-0.2-0.2v-2.6c0-0.1,0.1-0.2,0.2-0.2h1.5v-3.3
			c0-0.2,0.1-0.3,0.3-0.3H95c0.2,0,0.3,0.1,0.3,0.3v3.3h3.3c0.1,0,0.2,0.1,0.2,0.3v2.5c0,0.2-0.1,0.3-0.3,0.3h-3.3v6.2
			C95.3,25.2,95.5,25.9,96.7,25.9z"/>
		<path id="path3036_3_" class="st0" d="M100.5,28.8c-0.2,0-0.3-0.1-0.3-0.3V15.5c0-0.2,0.1-0.3,0.3-0.3h2.9c0.2,0,0.3,0.1,0.3,0.3
			v13c0,0.2-0.1,0.3-0.3,0.3H100.5z"/>
		<path id="path3038_3_" class="st0" d="M104.1,11.3c0,1.2-1,2.2-2.2,2.2c-1.2,0-2.2-1-2.2-2.2c0-1.2,1-2.2,2.2-2.2
			C103.2,9.2,104.1,10.1,104.1,11.3z"/>
		<path id="path3040_3_" class="st0" d="M107,28.8c-0.2,0-0.2-0.1-0.2-0.2V18.2h-1.4l-0.2-0.2v-2.6c0-0.2,0-0.2,0.2-0.2h1.4v-0.6
			c0-2.5,1-4.6,4.3-4.6c1,0,2,0.2,2.4,0.3c0.2,0.1,0.2,0.1,0.2,0.3v2.5c0,0.3-0.2,0.3-0.5,0.2c-0.2-0.1-0.8-0.3-1.5-0.3
			c-1.2,0-1.6,0.7-1.6,1.8v0.4h5.1c0.1,0,0.2,0.1,0.3,0.3l3.5,9.1l3.2-9c0.1-0.2,0.1-0.3,0.3-0.3h3.1c0.3,0,0.3,0.2,0.2,0.5
			L120.6,29c-0.8,1.8-1.5,3.9-4.6,3.9c-1.5,0-2.3-0.3-3.2-0.8c-0.2-0.1-0.1-0.3,0-0.6l0.9-2c0.1-0.2,0.3-0.2,0.5-0.1
			c0.2,0.1,0.9,0.4,1.5,0.4c0.9,0,1.3-0.6,1.6-1.3l-4.3-10.4h-2.8v10.3c0,0.2-0.1,0.2-0.2,0.2H107z"/>
	</g>
	<g>
		<path class="st0" d="M126.3,17.3L126.3,17.3c0-1.2,0.9-2.2,2.1-2.2c1.2,0,2.1,1,2.1,2.1v0c0,1.2-0.9,2.2-2.1,2.2
			C127.2,19.4,126.3,18.4,126.3,17.3z M130.3,17.3L130.3,17.3c0-1.1-0.8-1.9-1.9-1.9c-1.1,0-1.9,0.9-1.9,1.9v0c0,1,0.8,1.9,1.9,1.9
			C129.5,19.2,130.3,18.3,130.3,17.3z"/>
		<path class="st0" d="M127.6,16.1h1c0.5,0,0.8,0.2,0.8,0.7c0,0.4-0.2,0.6-0.5,0.7l0.6,0.8H129l-0.5-0.8H128v0.8h-0.4V16.1z
			 M128.5,17.2c0.3,0,0.4-0.1,0.4-0.4c0-0.2-0.2-0.4-0.4-0.4H128v0.7H128.5z"/>
	</g>
	<path id="path3101_3_" class="st0" d="M19.9,0.2C9.1,0.2,0.3,8.9,0.3,19.7c0,10.8,8.7,19.5,19.5,19.5c10.8,0,19.5-8.7,19.5-19.5
		C39.4,8.9,30.7,0.2,19.9,0.2z M17,10.4c5.7,0,11.8,1.2,16.2,3.8c0.6,0.3,1,0.8,1,1.8c0,1.1-0.9,1.8-1.8,1.8c-0.4,0-0.6-0.1-1-0.3
		c-3.5-2.1-9-3.3-14.3-3.3c-2.6,0-5.3,0.3-7.8,0.9c-0.3,0.1-0.6,0.2-1,0.2c-1,0-1.8-0.8-1.8-1.9c0-1.1,0.7-1.7,1.4-1.9
		C10.5,10.8,13.6,10.4,17,10.4z M16.6,17.1c5.1,0,10.1,1.3,14,3.6c0.7,0.4,0.9,0.8,0.9,1.5c0,0.8-0.7,1.5-1.5,1.5
		c-0.4,0-0.7-0.2-1-0.3c-3.2-1.9-7.6-3.1-12.4-3.1c-2.5,0-4.6,0.3-6.4,0.8c-0.4,0.1-0.6,0.2-1,0.2c-0.8,0-1.5-0.7-1.5-1.5
		c0-0.8,0.4-1.4,1.2-1.6C11.1,17.6,13.4,17.1,16.6,17.1z M16.9,23.5c4.3,0,8.1,1,11.4,2.9c0.5,0.3,0.8,0.6,0.8,1.3
		c0,0.7-0.6,1.2-1.2,1.2c-0.3,0-0.5-0.1-0.8-0.3c-2.8-1.7-6.4-2.6-10.1-2.6c-2.1,0-4.2,0.3-6.2,0.7c-0.3,0.1-0.7,0.2-1,0.2
		c-0.7,0-1.2-0.6-1.2-1.2c0-0.8,0.5-1.2,1.1-1.3C12,23.8,14.4,23.5,16.9,23.5z"/>
</g>
</svg>
